<svg width="16" height="16" viewBox="0 0 16 16" fill="none" xmlns="http://www.w3.org/2000/svg">
<g clip-path="url(#clip0_1517_457)">
<rect width="16" height="16" fill="white"/>
<path d="M16.2735 20.4H-4.27367C-5.00644 20.4 -5.6001 19.8063 -5.6001 19.0735V-1.47362C-5.6001 -2.20639 -5.00644 -2.80005 -4.27367 -2.80005H16.271C17.0062 -2.80005 17.5999 -2.20639 17.5999 -1.47362V19.071C17.5999 19.8063 17.0062 20.4 16.2735 20.4Z" fill="#FAD64B"/>
<path d="M7.64023 8.01369C7.14001 8.60127 6.36399 8.80684 5.66164 8.54988C5.34301 8.43339 5.07235 8.22611 4.87534 7.95545C4.75714 8.09935 4.66292 8.2638 4.59611 8.44367C4.50018 8.70406 4.46935 8.97472 4.49676 9.23682C5.0004 9.60513 5.6308 9.81926 6.32973 9.82954C7.0989 9.82783 7.82866 9.54346 8.38541 8.93018C8.13873 8.62526 7.89033 8.32033 7.64023 8.01369ZM12.4848 1.94945C11.8766 0.483074 10.0848 0.0770781 8.81539 1.10149C7.37127 2.26637 5.93059 3.43811 4.48134 4.59785C3.46549 5.40984 3.06978 6.65695 3.47063 7.83725C3.48776 7.88864 3.50661 7.93832 3.52716 7.988C3.73444 7.44324 4.08562 6.98243 4.5413 6.65181C4.59954 6.2441 4.80682 5.85352 5.17684 5.55202C6.64494 4.35631 8.11817 3.16573 9.59312 1.97858C10.1036 1.56744 10.7323 1.59828 11.1708 2.04025C11.6025 2.47536 11.6248 3.10577 11.212 3.61969C10.3212 4.72119 9.42524 5.81926 8.53102 6.92076C8.48648 6.97558 8.44194 7.0304 8.3974 7.08693C8.4505 7.14346 8.5019 7.20342 8.55158 7.26509C8.752 7.51519 8.95243 7.76359 9.15286 8.01369C10.179 6.76659 11.1931 5.51091 12.1935 4.24496C12.7349 3.55631 12.8222 2.75973 12.4848 1.94945Z" fill="white"/>
<path d="M12.0464 11.5992C11.082 10.4035 10.1141 9.20945 9.15134 8.01373C8.92522 8.28954 8.69738 8.56363 8.47126 8.83772C8.44385 8.87026 8.41644 8.90281 8.38903 8.93365C9.31922 10.0797 10.246 11.2292 11.171 12.3786C11.5822 12.8891 11.5513 13.5178 11.1094 13.9563C10.6743 14.388 10.0438 14.4103 9.52993 13.9975C8.42672 13.1067 7.32865 12.2107 6.22715 11.3165C5.86569 11.0236 5.4991 10.7341 5.14278 10.4343C4.76762 10.1191 4.54492 9.69082 4.49695 9.24029C4.06698 8.92508 3.7295 8.49682 3.52565 7.98804C3.39374 8.33408 3.32008 8.71438 3.31494 9.11523C3.31665 9.92208 3.63014 10.6895 4.31023 11.2531C5.82629 12.5122 7.35777 13.7525 8.90295 14.9739C9.58989 15.5169 10.3865 15.6043 11.1967 15.2686C12.6648 14.6587 13.0708 12.8686 12.0464 11.5992Z" fill="black"/>
<path d="M8.39765 7.08529C8.14925 7.39364 7.90429 7.702 7.64904 8.00349C7.64561 8.00692 7.6439 8.01035 7.64047 8.01377C7.62677 7.99664 7.61135 7.9778 7.59765 7.96067C7.24818 7.5324 6.7788 7.3217 6.30257 7.30799C5.71499 7.3097 5.2045 7.5581 4.87559 7.95724C4.65289 7.65403 4.52441 7.2703 4.52441 6.84546C4.52613 6.78037 4.53127 6.71527 4.54154 6.65189C4.77281 6.48401 5.03148 6.35039 5.31071 6.25446C6.42077 5.87758 7.58566 6.20307 8.39765 7.08529Z" fill="black"/>
<path d="M9.1513 8.01197C8.92517 8.28777 8.69734 8.56186 8.47121 8.83595C8.4438 8.8685 8.41639 8.90105 8.38899 8.93189C8.14059 8.62525 7.8922 8.32032 7.64209 8.01368C7.64552 8.01026 7.64723 8.00683 7.65066 8.00341C7.90419 7.70191 8.15087 7.39184 8.39926 7.08521C8.45237 7.14174 8.50376 7.20169 8.55344 7.26336C8.75044 7.51347 8.95087 7.76358 9.1513 8.01197Z" fill="white"/>
<path d="M4.59801 8.44544C4.50208 8.70582 4.47124 8.97648 4.49865 9.23858C4.06867 8.92338 3.7312 8.49511 3.52734 7.98633C3.73462 7.44158 4.0858 6.98077 4.54148 6.65015C4.5312 6.71524 4.52606 6.77863 4.52435 6.84372C4.52435 7.26685 4.65454 7.65057 4.87552 7.9555C4.75732 8.10111 4.6631 8.26556 4.59801 8.44544Z" fill="black"/>
</g>
<defs>
<clipPath id="clip0_1517_457">
<rect width="16" height="16" fill="white"/>
</clipPath>
</defs>
</svg>
